PathFileType	4	(X/Y/Z)	jw_hip_rstar.trc	
DataRate	CameraRate	NumFrames	NumMarkers	Units	OrigDataRate	OrigDataStartFrame	OrigNumFrames	
120.00	120.00	23	8	mm	120.00	1030	1647	
Frame#	Time	RAsis			LAsis			RPsis			LPsis			RThighSuperior			RThighInferior			RThighLateral			RPatella			
		X1	Y1	Z1	X2	Y2	Z2	X3	Y3	Z3	X4	Y4	Z4	X5	Y5	Z5	X6	Y6	Z6	X7	Y7	Z7	X8	Y8	Z8	

1030	8.575	-374.08441	185.22260	1065.29440	-123.92566	154.25282	982.75629	-240.92619	382.73874	1001.19870	-186.64011	370.02393	990.69043	-439.09927	221.63922	846.97180	-436.56128	115.38647	622.27838	-398.66367	103.33204	718.64203	-399.52090	75.86940	539.13672 
1031	8.583	-374.04584	184.81496	1065.07300	-123.74218	154.10718	982.81787	-240.95581	382.59430	1001.14860	-186.74979	369.85074	990.63226	-439.39050	220.99329	847.09668	-436.79874	114.36231	622.39325	-398.76086	102.56904	718.89349	-399.94870	75.24017	538.80963 
1032	8.592	-374.05042	184.43781	1064.78610	-123.66470	153.88011	982.94592	-241.03107	382.40927	1001.13510	-186.89349	369.62796	990.55487	-438.93121	220.17747	847.00336	-437.28149	113.27512	622.56177	-399.05353	101.80122	719.11017	-400.32370	74.43360	538.46967 
1033	8.600	-374.02609	183.96529	1064.58940	-123.59317	153.72037	983.03058	-241.07399	382.43079	1001.17540	-186.99207	369.45959	990.50128	-439.15887	219.44131	847.02405	-437.63397	112.26826	622.82990	-399.40225	100.85574	719.34125	-400.63293	73.62785	538.06940 
1034	8.608	-373.93234	183.46463	1064.54060	-123.52632	153.55444	983.10541	-241.66821	381.76846	1001.04930	-187.43814	368.92618	990.22559	-439.69608	218.81018	847.25342	-438.06250	111.14775	622.89014	-399.77658	99.91306	719.53571	-401.07663	72.89877	537.45770 
1035	8.617	-373.95605	183.03116	1064.56480	-123.51802	153.39285	983.20972	-241.86739	381.48331	1001.03250	-187.35812	369.11606	990.48242	-439.97559	218.28206	847.40668	-438.60992	110.04361	623.02130	-400.37885	98.92352	719.75232	-401.48520	72.08777	536.76294 
1036	8.625	-373.98547	182.68544	1064.71360	-123.46682	153.29704	983.30389	-242.61122	380.90814	1000.79800	-186.54417	369.67593	991.80872	-440.23807	217.62437	847.51367	-439.25217	109.27228	623.23969	-400.97675	98.04520	720.07520	-401.88916	71.23619	536.36719 
1037	8.633	-374.01575	182.20680	1064.93440	-123.37634	153.22987	983.38269	-242.97723	380.61954	1000.62200	-186.76027	369.52237	991.78668	-440.72049	217.02724	847.65588	-439.97238	108.36781	623.38751	-401.74609	96.84445	720.48334	-402.16669	70.44469	535.86951 
1038	8.642	-374.15070	181.71559	1065.11270	-123.28680	153.07141	983.51672	-242.78149	380.77753	1000.81150	-188.39558	368.48761	990.75879	-441.25653	216.52444	847.82526	-440.63062	107.43430	623.52777	-402.52768	96.00016	720.69733	-402.51685	69.69312	535.17676 
1039	8.650	-374.26224	181.22882	1065.28050	-123.31277	152.95798	983.61322	-243.66435	380.11227	1000.48100	-187.87445	368.88052	991.39624	-441.66345	215.86639	847.67126	-441.40488	106.43890	623.71606	-403.47006	94.96410	721.01678	-403.04794	68.98705	534.67230 
1040	8.658	-374.34814	180.73454	1065.37290	-123.33472	152.77509	983.72119	-244.18341	379.70953	1000.29080	-188.01167	368.74951	991.41705	-442.02225	215.33739	847.43268	-442.03226	105.36709	623.73029	-404.43323	93.85252	721.35205	-403.48972	68.31014	534.01385 
1041	8.667	-374.49780	180.08508	1065.50820	-123.39659	152.56271	983.82239	-244.48131	379.41675	1000.19680	-188.40919	368.37027	990.64117	-442.60272	214.71504	847.39050	-442.77582	104.17896	623.79602	-405.19998	92.69361	721.71307	-403.72012	67.38649	533.33142 
1042	8.675	-374.56656	179.51753	1065.56050	-123.40479	152.33365	983.93115	-245.13054	378.89163	1000.02440	-188.91644	368.04370	990.51984	-443.23013	214.12236	847.21661	-443.38681	103.14629	624.02899	-405.96918	91.40585	722.00098	-403.88281	66.51923	532.69861 
1043	8.683	-374.63544	178.96829	1065.49290	-123.44090	152.07397	983.96173	-245.70905	378.43445	999.81763	-189.45326	367.67337	990.40875	-443.94724	213.33231	847.10968	-444.08920	102.00157	624.17908	-406.61716	90.20992	722.34399	-404.06454	65.48686	532.00647 
1044	8.692	-374.80884	178.23999	1065.45150	-123.49815	151.75587	984.03241	-246.20354	378.01709	999.65509	-189.86688	367.40775	990.27380	-444.78476	212.68620	847.09808	-444.49881	100.61404	624.21393	-407.45959	89.01492	722.56104	-404.39417	64.88762	531.18066 
1045	8.700	-374.99240	177.60985	1065.41190	-123.56543	151.47154	984.01740	-246.80118	377.58820	999.43121	-190.33578	367.12051	990.11194	-445.03989	211.75032	846.84650	-444.98328	99.21754	624.26630	-407.98801	87.56739	722.74835	-404.59940	64.06722	530.17834 
1046	8.708	-374.99551	176.86755	1065.21280	-123.55721	151.19159	984.03632	-247.27155	377.17886	999.16296	-190.86209	366.73990	989.69690	-445.38425	210.63510	846.54333	-445.44180	97.98798	624.42590	-408.43829	86.29989	722.83160	-404.78131	63.21769	529.44611 
1047	8.717	-375.02457	176.02100	1064.99070	-123.55654	150.90038	983.95819	-247.84041	376.75842	998.96735	-191.41435	366.38870	989.48474	-445.61032	209.61612	846.69446	-445.84750	96.56678	624.36188	-408.48627	84.94046	722.92615	-404.86935	62.32573	528.57764 
1048	8.725	-375.14581	175.28983	1064.88780	-123.62116	150.69424	983.85223	-248.53085	376.27097	998.70288	-191.89104	366.06506	989.35040	-445.83267	208.61801	846.77557	-446.17538	95.19238	624.36896	-408.83453	83.67902	723.03644	-404.90277	61.65960	527.68689 
1049	8.733	-375.33060	174.65376	1064.82130	-123.61348	150.48514	983.79669	-249.26143	375.65344	998.69427	-192.50790	365.60608	989.22028	-446.41162	207.53003	846.88416	-446.47467	93.82730	624.39191	-409.00354	82.61589	723.12549	-404.98837	61.10155	526.80585 
1050	8.742	-375.48486	174.03485	1064.74580	-123.53435	150.27609	983.82410	-250.01176	374.99527	998.37805	-193.09839	365.33746	989.03784	-446.49442	206.44029	846.65814	-446.77170	92.62094	624.59088	-409.05652	81.24270	723.31897	-404.93665	60.53213	526.05066 
1051	8.750	-375.56531	173.51627	1064.66160	-123.44863	150.07161	983.90833	-250.56454	374.57544	998.15417	-193.61476	365.05939	988.89020	-446.62506	205.40541	846.55463	-447.28098	91.53680	624.78625	-409.21249	80.26189	723.32043	-405.18384	60.06578	525.35101 
1052	8.758	-375.81973	172.98511	1064.69760	-123.39243	149.88359	984.00854	-250.73718	374.45319	997.62225	-193.99875	364.74802	988.68604	-447.07736	204.56610	846.62164	-447.71088	90.44991	624.99976	-409.56625	79.37864	723.57153	-405.33835	59.80113	524.80780 
